{
  "accessors": [
    {
      "bufferView": 2,
      "componentType": 5126,
      "count": 41003,
      "max": [
        0.88794910907745361,
        1.1788567304611206,
        1.2312229871749878
      ],
      "min": [
        -0.97604060173034668,
        -0.9707598090171814,
        -1.2032369375228882
      ],
      "type": "VEC3"
    },
    {
      "bufferView": 2,
      "byteOffset": 492036,
      "componentType": 5126,
      "count": 41003,
      "max": [
        0.99999713897705078,
        0.99995756149291992,
        0.99995923042297363
      ],
      "min": [
        -0.9999852180480957,
        -0.99996531009674072,
        -0.99998211860656738
      ],
      "type": "VEC3"
    },
    {
      "bufferView": 0,
      "componentType": 5125,
      "count": 246006,
      "max": [
        41002
      ],
      "min": [
        0
      ],
      "type": "SCALAR"
    },
    {
      "bufferView": 2,
      "byteOffset": 984072,
      "componentType": 5126,
      "count": 5683,
      "max": [
        0.89240211248397827,
        1.4523370265960693,
        1.0097486972808838
      ],
      "min": [
        -1.2112011909484863,
        -1.095900297164917,
        -1.9065151214599609
      ],
      "type": "VEC3"
    },
    {
      "bufferView": 2,
      "byteOffset": 1052268,
      "componentType": 5126,
      "count": 5683,
      "max": [
        0.99808675050735474,
        0.99941515922546387,
        0.99541270732879639
      ],
      "min": [
        -0.99960625171661377,
        -0.99995744228363037,
        -0.99977350234985352
      ],
      "type": "VEC3"
    },
    {
      "bufferView": 1,
      "componentType": 5126,
      "count": 5683,
      "max": [
        1.0000002384185791,
        1
      ],
      "min": [
        0,
        0
      ],
      "type": "VEC2"
    },
    {
      "bufferView": 0,
      "byteOffset": 984024,
      "componentType": 5125,
      "count": 33606,
      "max": [
        5682
      ],
      "min": [
        0
      ],
      "type": "SCALAR"
    },
    {
      "bufferView": 2,
      "byteOffset": 1120464,
      "componentType": 5126,
      "count": 1118,
      "max": [
        0.89462769031524658,
        2.69537353515625,
        0.87620830535888672
      ],
      "min": [
        -1.0538859367370605,
        -1.069433331489563,
        -7.7575263977050781
      ],
      "type": "VEC3"
    },
    {
      "bufferView": 2,
      "byteOffset": 1133880,
      "componentType": 5126,
      "count": 1118,
      "max": [
        0.9994971752166748,
        0.99991309642791748,
        0.99927163124084473
      ],
      "min": [
        -0.99998462200164795,
        -0.99779045581817627,
        -0.99882572889328003
      ],
      "type": "VEC3"
    },
    {
      "bufferView": 1,
      "byteOffset": 45464,
      "componentType": 5126,
      "count": 1118,
      "max": [
        1.0000002384185791,
        1
      ],
      "min": [
        0,
        0
      ],
      "type": "VEC2"
    },
    {
      "bufferView": 0,
      "byteOffset": 1118448,
      "componentType": 5125,
      "count": 5760,
      "max": [
        1117
      ],
      "min": [
        0
      ],
      "type": "SCALAR"
    },
    {
      "bufferView": 2,
      "byteOffset": 1147296,
      "componentType": 5126,
      "count": 1118,
      "max": [
        0.96595269441604614,
        1.1322880983352661,
        0.87620830535888672
      ],
      "min": [
        -0.96875768899917603,
        -2.525629997253418,
        -7.8028554916381836
      ],
      "type": "VEC3"
    },
    {
      "bufferView": 2,
      "byteOffset": 1160712,
      "componentType": 5126,
      "count": 1118,
      "max": [
        0.9994971752166748,
        0.99991309642791748,
        0.99741083383560181
      ],
      "min": [
        -0.99998462200164795,
        -0.99856823682785034,
        -0.99998950958251953
      ],
      "type": "VEC3"
    },
    {
      "bufferView": 1,
      "byteOffset": 54408,
      "componentType": 5126,
      "count": 1118,
      "max": [
        1.0000002384185791,
        1
      ],
      "min": [
        0,
        0
      ],
      "type": "VEC2"
    },
    {
      "bufferView": 0,
      "byteOffset": 1141488,
      "componentType": 5125,
      "count": 5760,
      "max": [
        1117
      ],
      "min": [
        0
      ],
      "type": "SCALAR"
    },
    {
      "bufferView": 2,
      "byteOffset": 1174128,
      "componentType": 5126,
      "count": 10590,
      "max": [
        1.3937557935714722,
        7.2249755859375,
        9.7616853713989258
      ],
      "min": [
        -2.1456565856933594,
        -3.7981336116790771,
        -1.3441727161407471
      ],
      "type": "VEC3"
    },
    {
      "bufferView": 2,
      "byteOffset": 1301208,
      "componentType": 5126,
      "count": 10590,
      "max": [
        0.99986350536346436,
        0.99993419647216797,
        0.99958527088165283
      ],
      "min": [
        -0.99992871284484863,
        -0.9996412992477417,
        -0.99995934963226318
      ],
      "type": "VEC3"
    },
    {
      "bufferView": 1,
      "byteOffset": 63352,
      "componentType": 5126,
      "count": 10590,
      "max": [
        0,
        0
      ],
      "min": [
        0,
        0
      ],
      "type": "VEC2"
    },
    {
      "bufferView": 0,
      "byteOffset": 1164528,
      "componentType": 5125,
      "count": 63468,
      "max": [
        10589
      ],
      "min": [
        0
      ],
      "type": "SCALAR"
    },
    {
      "bufferView": 2,
      "byteOffset": 1428288,
      "componentType": 5126,
      "count": 1118,
      "max": [
        1.0000002384185791,
        1,
        1.0000003576278687
      ],
      "min": [
        -4.8451023101806641,
        -1.3088269233703613,
        -7.9350681304931641
      ],
      "type": "VEC3"
    },
    {
      "bufferView": 2,
      "byteOffset": 1441704,
      "componentType": 5126,
      "count": 1118,
      "max": [
        1,
        1,
        1
      ],
      "min": [
        -1,
        -1,
        -1
      ],
      "type": "VEC3"
    },
    {
      "bufferView": 1,
      "byteOffset": 148072,
      "componentType": 5126,
      "count": 1118,
      "max": [
        1.0000002384185791,
        1
      ],
      "min": [
        0,
        0
      ],
      "type": "VEC2"
    },
    {
      "bufferView": 0,
      "byteOffset": 1418400,
      "componentType": 5125,
      "count": 5760,
      "max": [
        1117
      ],
      "min": [
        0
      ],
      "type": "SCALAR"
    },
    {
      "bufferView": 2,
      "byteOffset": 1455120,
      "componentType": 5126,
      "count": 1677,
      "max": [
        1.0000002384185791,
        1,
        3.4831814765930176
      ],
      "min": [
        -2.0414023399353027,
        -3.7490546703338623,
        -1.6222251653671265
      ],
      "type": "VEC3"
    },
    {
      "bufferView": 2,
      "byteOffset": 1475244,
      "componentType": 5126,
      "count": 1677,
      "max": [
        1,
        1,
        1
      ],
      "min": [
        -1,
        -1,
        -1
      ],
      "type": "VEC3"
    },
    {
      "bufferView": 1,
      "byteOffset": 157016,
      "componentType": 5126,
      "count": 1677,
      "max": [
        1.0000002384185791,
        1
      ],
      "min": [
        0,
        0
      ],
      "type": "VEC2"
    },
    {
      "bufferView": 0,
      "byteOffset": 1441440,
      "componentType": 5125,
      "count": 8640,
      "max": [
        1676
      ],
      "min": [
        0
      ],
      "type": "SCALAR"
    },
    {
      "bufferView": 2,
      "byteOffset": 1495368,
      "componentType": 5126,
      "count": 562,
      "max": [
        0.022416725754737854,
        0.3340306282043457,
        0.019947249442338943
      ],
      "min": [
        -0.021045239642262459,
        -0.36116671562194824,
        -0.068923749029636383
      ],
      "type": "VEC3"
    },
    {
      "bufferView": 2,
      "byteOffset": 1502112,
      "componentType": 5126,
      "count": 562,
      "max": [
        0.9999992847442627,
        0.99166268110275269,
        0.99977016448974609
      ],
      "min": [
        -0.99999904632568359,
        -0.97978329658508301,
        -0.99998366832733154
      ],
      "type": "VEC3"
    },
    {
      "bufferView": 1,
      "byteOffset": 170432,
      "componentType": 5126,
      "count": 562,
      "max": [
        1,
        1
      ],
      "min": [
        0,
        0.09417743980884552
      ],
      "type": "VEC2"
    },
    {
      "bufferView": 0,
      "byteOffset": 1476000,
      "componentType": 5125,
      "count": 2724,
      "max": [
        561
      ],
      "min": [
        0
      ],
      "type": "SCALAR"
    }
  ],
  "asset": {
    "extras": {
      "author": "Felix Yadomi (https://sketchfab.com/felixyadomi)",
      "license": "CC-BY-4.0 (http://creativecommons.org/licenses/by/4.0/)",
      "source": "https://sketchfab.com/3d-models/cute-axolotl-e4625a288edf41afab1054a0fa529b3a",
      "title": "Cute Axolotl"
    },
    "generator": "Sketchfab-9.77.0",
    "version": "2.0"
  },
  "bufferViews": [
    {
      "buffer": 0,
      "byteLength": 1486896,
      "byteOffset": 0,
      "name": "floatBufferViews",
      "target": 34963
    },
    {
      "buffer": 0,
      "byteLength": 174928,
      "byteOffset": 1486896,
      "byteStride": 8,
      "name": "floatBufferViews",
      "target": 34962
    },
    {
      "buffer": 0,
      "byteLength": 1508856,
      "byteOffset": 1661824,
      "byteStride": 12,
      "name": "floatBufferViews",
      "target": 34962
    }
  ],
  "buffers": [
    {
      "byteLength": 3170680,
      "uri": "scene.bin"
    }
  ],
  "materials": [
    {
      "doubleSided": true,
      "emissiveFactor": [
        0,
        0,
        0
      ],
      "name": "skin",
      "pbrMetallicRoughness": {
        "baseColorFactor": [
          0.80000000000000004,
          0.80000000000000004,
          0.80000000000000004,
          1
        ],
        "metallicFactor": 0,
        "roughnessFactor": 0.72727299999999995
      }
    },
    {
      "doubleSided": true,
      "emissiveFactor": [
        0,
        0,
        0
      ],
      "name": "head_things",
      "pbrMetallicRoughness": {
        "baseColorFactor": [
          0.79999999999999993,
          0.074323899999999915,
          0.15429699999999971,
          1
        ],
        "metallicFactor": 0,
        "roughnessFactor": 0.5
      }
    },
    {
      "doubleSided": true,
      "emissiveFactor": [
        0,
        0,
        0
      ],
      "name": "face_elements",
      "pbrMetallicRoughness": {
        "baseColorFactor": [
          0,
          0,
          0,
          1
        ],
        "metallicFactor": 0,
        "roughnessFactor": 0
      }
    }
  ],
  "meshes": [
    {
      "primitives": [
        {
          "attributes": {
            "NORMAL": 1,
            "POSITION": 0
          },
          "indices": 2,
          "material": 0,
          "mode": 4
        }
      ]
    },
    {
      "primitives": [
        {
          "attributes": {
            "NORMAL": 4,
            "POSITION": 3,
            "TEXCOORD_0": 5
          },
          "indices": 6,
          "material": 0,
          "mode": 4
        }
      ]
    },
    {
      "primitives": [
        {
          "attributes": {
            "NORMAL": 8,
            "POSITION": 7,
            "TEXCOORD_0": 9
          },
          "indices": 10,
          "material": 0,
          "mode": 4
        }
      ]
    },
    {
      "primitives": [
        {
          "attributes": {
            "NORMAL": 12,
            "POSITION": 11,
            "TEXCOORD_0": 13
          },
          "indices": 14,
          "material": 0,
          "mode": 4
        }
      ]
    },
    {
      "primitives": [
        {
          "attributes": {
            "NORMAL": 16,
            "POSITION": 15,
            "TEXCOORD_0": 17
          },
          "indices": 18,
          "material": 1,
          "mode": 4
        }
      ]
    },
    {
      "primitives": [
        {
          "attributes": {
            "NORMAL": 20,
            "POSITION": 19,
            "TEXCOORD_0": 21
          },
          "indices": 22,
          "material": 2,
          "mode": 4
        }
      ]
    },
    {
      "primitives": [
        {
          "attributes": {
            "NORMAL": 24,
            "POSITION": 23,
            "TEXCOORD_0": 25
          },
          "indices": 26,
          "material": 1,
          "mode": 4
        }
      ]
    },
    {
      "primitives": [
        {
          "attributes": {
            "NORMAL": 28,
            "POSITION": 27,
            "TEXCOORD_0": 29
          },
          "indices": 30,
          "material": 2,
          "mode": 4
        }
      ]
    }
  ],
  "nodes": [
    {
      "children": [
        1
      ],
      "name": "RootNode (gltf orientation matrix)",
      "rotation": [
        -0.70710678118654746,
        -0,
        -0,
        0.70710678118654757
      ]
    },
    {
      "children": [
        2
      ],
      "name": "RootNode (model correction matrix)"
    },
    {
      "children": [
        3
      ],
      "name": "root"
    },
    {
      "children": [
        4,
        6,
        8,
        10,
        12,
        14,
        16,
        18
      ],
      "matrix": [
        1,
        0,
        0,
        0,
        0,
        2.2204460492503131e-16,
        1,
        0,
        0,
        -1,
        2.2204460492503131e-16,
        0,
        0,
        0,
        0,
        1
      ],
      "name": "GLTF_SceneRootNode"
    },
    {
      "children": [
        5
      ],
      "name": "head_1"
    },
    {
      "mesh": 0,
      "name": ""
    },
    {
      "children": [
        7
      ],
      "matrix": [
        0.72044169902801514,
        0,
        0,
        0,
        0,
        0.72044169902801514,
        0,
        0,
        0,
        0,
        0.72044169902801514,
        0,
        0,
        -1.6141988039016724,
        0,
        1
      ],
      "name": "body_3"
    },
    {
      "mesh": 1,
      "name": ""
    },
    {
      "children": [
        9
      ],
      "matrix": [
        0.17302979448223149,
        -0.00077912517079723907,
        0.0021124591706000433,
        0,
        0.001243368096021509,
        0.16841800078603736,
        -0.039726695625921397,
        0,
        -0.0018771136238965123,
        0.039738511214501192,
        0.16840934198921514,
        0,
        0.42862722277641296,
        -0.96861094236373901,
        0.60535502433776855,
        1
      ],
      "name": "legs-up_4"
    },
    {
      "mesh": 2,
      "name": ""
    },
    {
      "children": [
        11
      ],
      "matrix": [
        0.17303227547850181,
        0.0011155078476128115,
        -0.0017223772282102638,
        0,
        -0.00072989211949031651,
        0.16920156403194947,
        0.036258478801219608,
        0,
        0.0019178630212423856,
        -0.036248664385415637,
        0.16919437174459362,
        0,
        0.44082701206207275,
        -1.6473914384841919,
        0.60798114538192749,
        1
      ],
      "name": "legs-down_5"
    },
    {
      "mesh": 3,
      "name": ""
    },
    {
      "children": [
        13
      ],
      "matrix": [
        -0.26934508704466464,
        -0.0090342317109632607,
        0.041753517124876398,
        -0,
        -0.023571303250711981,
        -0.19086850491607329,
        -0.19335293363217582,
        -0,
        -0.035628179829563227,
        0.19457478238070378,
        -0.18773128751898754,
        -0,
        0.29594624042510986,
        -0.20105630159378052,
        1.1415292024612427,
        1
      ],
      "name": "head-things_6"
    },
    {
      "mesh": 4,
      "name": ""
    },
    {
      "children": [
        15
      ],
      "matrix": [
        0.086687088635804238,
        0.0081229313772575064,
        0.026870599029602534,
        0,
        -0.016017647484321634,
        0.14982058179409294,
        0.0063839634615984056,
        0,
        -0.043612364063405434,
        -0.0107969980178459,
        0.1439615149219082,
        0,
        0.77784788608551025,
        0.13960447907447815,
        0.55649727582931519,
        1
      ],
      "name": "eyes_7"
    },
    {
      "mesh": 5,
      "name": ""
    },
    {
      "children": [
        17
      ],
      "matrix": [
        0.032444495527933909,
        0.056080381668693093,
        -0.025499844457736974,
        0,
        -0.087769171115554337,
        0.066354320300066424,
        0.034257037508333539,
        0,
        0.051893395674296468,
        0.016181232552597572,
        0.10161257044520502,
        0,
        0.32310408353805542,
        0.93564486503601074,
        -0.57128989696502686,
        1
      ],
      "name": "eyes.002_8"
    },
    {
      "mesh": 6,
      "name": ""
    },
    {
      "children": [
        19
      ],
      "matrix": [
        0.99963436064728206,
        1.7722657369434458e-10,
        0.027039693291522313,
        0,
        -0.023766791448962245,
        -7.4099615217193305e-08,
        0.87863797560786283,
        0,
        2.456710709863863e-09,
        -0.99999999999999634,
        -8.4268184652458444e-08,
        0,
        0.88562023639678955,
        0.050083447247743607,
        0,
        1
      ],
      "name": "Cylindre_9"
    },
    {
      "mesh": 7,
      "name": ""
    }
  ],
  "scene": 0,
  "scenes": [
    {
      "name": "OSG_Scene",
      "nodes": [
        0
      ]
    }
  ]
}

