{
  "asset": {
    "version": "2.0",
    "generator": "THREE.GLTFExporter"
  },
  "scenes": [
    {
      "name": "Scene",
      "nodes": [
        6
      ]
    }
  ],
  "scene": 0,
  "nodes": [
    {
      "name": "Mesh_donutSprinkles",
      "mesh": 0
    },
    {
      "name": "Mesh_donutSprinkles_1",
      "mesh": 1
    },
    {
      "name": "Mesh_donutSprinkles_2",
      "mesh": 2
    },
    {
      "name": "Mesh_donutSprinkles_3",
      "mesh": 3
    },
    {
      "name": "Mesh_donutSprinkles_4",
      "mesh": 4
    },
    {
      "name": "donutSprinkles",
      "extras": {
        "name": "donutSprinkles"
      },
      "children": [
        0,
        1,
        2,
        3,
        4
      ]
    },
    {
      "name": "donutSprinkles.glb",
      "children": [
        5
      ]
    }
  ],
  "bufferViews": [
    {
      "buffer": 0,
      "byteOffset": 0,
      "byteLength": 4536,
      "target": 34962,
      "byteStride": 12
    },
    {
      "buffer": 0,
      "byteOffset": 4536,
      "byteLength": 4536,
      "target": 34962,
      "byteStride": 12
    },
    {
      "buffer": 0,
      "byteOffset": 9072,
      "byteLength": 3024,
      "target": 34962,
      "byteStride": 8
    },
    {
      "buffer": 0,
      "byteOffset": 12096,
      "byteLength": 936,
      "target": 34963
    },
    {
      "buffer": 0,
      "byteOffset": 13032,
      "byteLength": 1224,
      "target": 34963
    },
    {
      "buffer": 0,
      "byteOffset": 14256,
      "byteLength": 288,
      "target": 34963
    },
    {
      "buffer": 0,
      "byteOffset": 14544,
      "byteLength": 216,
      "target": 34963
    },
    {
      "buffer": 0,
      "byteOffset": 14760,
      "byteLength": 216,
      "target": 34963
    }
  ],
  "buffers": [
    {
      "byteLength": 14976,
      "uri": "data:application/octet-stream;base64,"
    }
  ],
  "accessors": [
    {
      "bufferView": 0,
      "componentType": 5126,
      "count": 378,
      "max": [
        0.12252926826477051,
        0.0949922502040863,
        0.14148461818695068
      ],
      "min": [
        -0.12252926826477051,
        0,
        -0.14148461818695068
      ],
      "type": "VEC3"
    },
    {
      "bufferView": 1,
      "componentType": 5126,
      "count": 378,
      "max": [
        1,
        1,
        1
      ],
      "min": [
        -1,
        -1,
        -1
      ],
      "type": "VEC3"
    },
    {
      "bufferView": 2,
      "componentType": 5126,
      "count": 378,
      "max": [
        3.8903121948242188,
        5.492145538330078
      ],
      "min": [
        -3.8903121948242188,
        -3.4946517944335938
      ],
      "type": "VEC2"
    },
    {
      "bufferView": 3,
      "componentType": 5125,
      "count": 234,
      "max": [
        137
      ],
      "min": [
        0
      ],
      "type": "SCALAR"
    },
    {
      "bufferView": 4,
      "componentType": 5125,
      "count": 306,
      "max": [
        237
      ],
      "min": [
        45
      ],
      "type": "SCALAR"
    },
    {
      "bufferView": 5,
      "componentType": 5125,
      "count": 72,
      "max": [
        293
      ],
      "min": [
        238
      ],
      "type": "SCALAR"
    },
    {
      "bufferView": 6,
      "componentType": 5125,
      "count": 54,
      "max": [
        335
      ],
      "min": [
        294
      ],
      "type": "SCALAR"
    },
    {
      "bufferView": 7,
      "componentType": 5125,
      "count": 54,
      "max": [
        377
      ],
      "min": [
        336
      ],
      "type": "SCALAR"
    }
  ],
  "materials": [
    {
      "pbrMetallicRoughness": {
        "baseColorFactor": [
          0.9764706,
          0.772549033,
          0.549019635,
          1
        ],
        "metallicFactor": 0,
        "roughnessFactor": 1
      },
      "name": "brownLight"
    },
    {
      "pbrMetallicRoughness": {
        "baseColorFactor": [
          0.9098039,
          0.6039216,
          0.8156863,
          1
        ],
        "metallicFactor": 0,
        "roughnessFactor": 1
      },
      "name": "purpleLight"
    },
    {
      "pbrMetallicRoughness": {
        "baseColorFactor": [
          1,
          0.4509804,
          0.227450982,
          1
        ],
        "metallicFactor": 0,
        "roughnessFactor": 1
      },
      "name": "orange"
    },
    {
      "pbrMetallicRoughness": {
        "baseColorFactor": [
          0.9607843,
          0.7254902,
          0.258823544,
          1
        ],
        "metallicFactor": 0,
        "roughnessFactor": 1
      },
      "name": "yellow"
    },
    {
      "pbrMetallicRoughness": {
        "baseColorFactor": [
          0.34117648,
          0.7372549,
          0.5921569,
          1
        ],
        "metallicFactor": 0,
        "roughnessFactor": 1
      },
      "name": "green"
    }
  ],
  "meshes": [
    {
      "primitives": [
        {
          "mode": 4,
          "attributes": {
            "POSITION": 0,
            "NORMAL": 1,
            "TEXCOORD_0": 2
          },
          "indices": 3,
          "material": 0
        }
      ]
    },
    {
      "primitives": [
        {
          "mode": 4,
          "attributes": {
            "POSITION": 0,
            "NORMAL": 1,
            "TEXCOORD_0": 2
          },
          "indices": 4,
          "material": 1
        }
      ]
    },
    {
      "primitives": [
        {
          "mode": 4,
          "attributes": {
            "POSITION": 0,
            "NORMAL": 1,
            "TEXCOORD_0": 2
          },
          "indices": 5,
          "material": 2
        }
      ]
    },
    {
      "primitives": [
        {
          "mode": 4,
          "attributes": {
            "POSITION": 0,
            "NORMAL": 1,
            "TEXCOORD_0": 2
          },
          "indices": 6,
          "material": 3
        }
      ]
    },
    {
      "primitives": [
        {
          "mode": 4,
          "attributes": {
            "POSITION": 0,
            "NORMAL": 1,
            "TEXCOORD_0": 2
          },
          "indices": 7,
          "material": 4
        }
      ]
    }
  ]
}